<mxfile host="65bd71144e">
    <diagram id="F60oPT75kqTQRJVjsXHv" name="Page-1">
        <mxGraphModel dx="547" dy="800" grid="1" gridSize="10" guides="1" tooltips="1" connect="1" arrows="1" fold="1" page="0" pageScale="1" pageWidth="850" pageHeight="1100" background="none" math="0" shadow="0">
            <root>
                <mxCell id="0"/>
                <mxCell id="1" parent="0"/>
                <mxCell id="11" style="edgeStyle=none;html=1;" edge="1" parent="1" source="2" target="10">
                    <mxGeometry relative="1" as="geometry"/>
                </mxCell>
                <mxCell id="2" value="Welcome&amp;nbsp;&lt;br&gt;&lt;br&gt;&lt;br&gt;" style="whiteSpace=wrap;html=1;aspect=fixed;" vertex="1" parent="1">
                    <mxGeometry x="310" y="30" width="125" height="125" as="geometry"/>
                </mxCell>
                <mxCell id="3" value="Login" style="rounded=0;whiteSpace=wrap;html=1;" vertex="1" parent="1">
                    <mxGeometry x="352.5" y="100" width="40" height="30" as="geometry"/>
                </mxCell>
                <mxCell id="19" style="edgeStyle=none;html=1;entryX=0;entryY=0;entryDx=0;entryDy=0;" edge="1" parent="1" source="10" target="18">
                    <mxGeometry relative="1" as="geometry"/>
                </mxCell>
                <mxCell id="10" value="" style="rounded=0;whiteSpace=wrap;html=1;" vertex="1" parent="1">
                    <mxGeometry x="290" y="250" width="170" height="60" as="geometry"/>
                </mxCell>
                <mxCell id="15" style="edgeStyle=none;html=1;entryX=1;entryY=0;entryDx=0;entryDy=0;" edge="1" parent="1" source="12" target="14">
                    <mxGeometry relative="1" as="geometry"/>
                </mxCell>
                <mxCell id="12" value="Add" style="rounded=0;whiteSpace=wrap;html=1;" vertex="1" parent="1">
                    <mxGeometry x="300" y="280" width="70" height="20" as="geometry"/>
                </mxCell>
                <mxCell id="13" value="Closer" style="rounded=0;whiteSpace=wrap;html=1;" vertex="1" parent="1">
                    <mxGeometry x="380" y="280" width="70" height="20" as="geometry"/>
                </mxCell>
                <mxCell id="14" value="A list of games with an add game button, plus update and delete buttons for games" style="rounded=0;whiteSpace=wrap;html=1;" vertex="1" parent="1">
                    <mxGeometry x="100" y="360" width="160" height="70" as="geometry"/>
                </mxCell>
                <mxCell id="26" style="edgeStyle=none;html=1;" edge="1" parent="1" source="18">
                    <mxGeometry relative="1" as="geometry">
                        <mxPoint x="553.125" y="520" as="targetPoint"/>
                    </mxGeometry>
                </mxCell>
                <mxCell id="35" style="edgeStyle=none;html=1;entryX=0.936;entryY=-0.039;entryDx=0;entryDy=0;entryPerimeter=0;" edge="1" parent="1" source="18" target="34">
                    <mxGeometry relative="1" as="geometry"/>
                </mxCell>
                <mxCell id="48" style="edgeStyle=none;html=1;entryX=0.212;entryY=1.012;entryDx=0;entryDy=0;entryPerimeter=0;" edge="1" parent="1" source="18" target="43">
                    <mxGeometry relative="1" as="geometry"/>
                </mxCell>
                <mxCell id="49" style="edgeStyle=none;html=1;entryX=0;entryY=0;entryDx=0;entryDy=0;" edge="1" parent="1" source="18" target="46">
                    <mxGeometry relative="1" as="geometry"/>
                </mxCell>
                <mxCell id="18" value="Greeting text and # of games seen" style="rounded=0;whiteSpace=wrap;html=1;" vertex="1" parent="1">
                    <mxGeometry x="470" y="360" width="170" height="80" as="geometry"/>
                </mxCell>
                <mxCell id="20" value="Game Comp" style="text;html=1;align=center;verticalAlign=middle;resizable=0;points=[];autosize=1;fillColor=default;" vertex="1" parent="1">
                    <mxGeometry x="93.5" y="330" width="90" height="30" as="geometry"/>
                </mxCell>
                <mxCell id="21" value="Landing Page Comp" style="text;html=1;align=center;verticalAlign=middle;resizable=0;points=[];autosize=1;strokeColor=none;fillColor=default;" vertex="1" parent="1">
                    <mxGeometry x="460" y="330" width="130" height="30" as="geometry"/>
                </mxCell>
                <mxCell id="23" value="/games" style="text;html=1;align=center;verticalAlign=middle;resizable=0;points=[];autosize=1;strokeColor=none;fillColor=default;" vertex="1" parent="1">
                    <mxGeometry x="200" y="440" width="60" height="30" as="geometry"/>
                </mxCell>
                <mxCell id="24" value="/closer/year/landing" style="text;html=1;align=center;verticalAlign=middle;resizable=0;points=[];autosize=1;strokeColor=none;fillColor=default;" vertex="1" parent="1">
                    <mxGeometry x="560" y="450" width="130" height="30" as="geometry"/>
                </mxCell>
                <mxCell id="32" style="edgeStyle=none;html=1;" edge="1" parent="1" source="27" target="31">
                    <mxGeometry relative="1" as="geometry"/>
                </mxCell>
                <mxCell id="27" value="Container for individual games&lt;br&gt;holds/passes state from backend" style="rounded=0;whiteSpace=wrap;html=1;" vertex="1" parent="1">
                    <mxGeometry x="470" y="520" width="170" height="80" as="geometry"/>
                </mxCell>
                <mxCell id="29" value="Games Comp" style="text;html=1;align=center;verticalAlign=middle;resizable=0;points=[];autosize=1;strokeColor=none;fillColor=default;" vertex="1" parent="1">
                    <mxGeometry x="460" y="490" width="100" height="30" as="geometry"/>
                </mxCell>
                <mxCell id="30" value="/closer/year/games/gamePk" style="text;html=1;align=center;verticalAlign=middle;resizable=0;points=[];autosize=1;strokeColor=none;fillColor=default;" vertex="1" parent="1">
                    <mxGeometry x="550" y="770" width="170" height="30" as="geometry"/>
                </mxCell>
                <mxCell id="31" value="Container for individual games" style="rounded=0;whiteSpace=wrap;html=1;" vertex="1" parent="1">
                    <mxGeometry x="470" y="680" width="170" height="80" as="geometry"/>
                </mxCell>
                <mxCell id="33" value="Game Comp" style="text;html=1;align=center;verticalAlign=middle;resizable=0;points=[];autosize=1;strokeColor=none;fillColor=default;" vertex="1" parent="1">
                    <mxGeometry x="460" y="650" width="90" height="30" as="geometry"/>
                </mxCell>
                <mxCell id="38" style="edgeStyle=none;html=1;entryX=0.5;entryY=0;entryDx=0;entryDy=0;" edge="1" parent="1" source="34" target="37">
                    <mxGeometry relative="1" as="geometry"/>
                </mxCell>
                <mxCell id="34" value="Container for ballparks&lt;br&gt;holds/passes state from backend" style="rounded=0;whiteSpace=wrap;html=1;" vertex="1" parent="1">
                    <mxGeometry x="730" y="520" width="170" height="80" as="geometry"/>
                </mxCell>
                <mxCell id="36" value="Ballparks Comp" style="text;html=1;align=center;verticalAlign=middle;resizable=0;points=[];autosize=1;strokeColor=none;fillColor=default;" vertex="1" parent="1">
                    <mxGeometry x="700" y="490" width="110" height="30" as="geometry"/>
                </mxCell>
                <mxCell id="37" value="Container for individual games" style="rounded=0;whiteSpace=wrap;html=1;" vertex="1" parent="1">
                    <mxGeometry x="730" y="680" width="170" height="80" as="geometry"/>
                </mxCell>
                <mxCell id="39" value="Ballpark Comp" style="text;html=1;align=center;verticalAlign=middle;resizable=0;points=[];autosize=1;strokeColor=none;fillColor=default;" vertex="1" parent="1">
                    <mxGeometry x="710" y="645" width="100" height="30" as="geometry"/>
                </mxCell>
                <mxCell id="40" value="/closer/year/ballparks/venueId" style="text;html=1;align=center;verticalAlign=middle;resizable=0;points=[];autosize=1;strokeColor=none;fillColor=default;" vertex="1" parent="1">
                    <mxGeometry x="820" y="770" width="180" height="30" as="geometry"/>
                </mxCell>
                <mxCell id="41" value="Facts from games, venue and dates" style="rounded=0;whiteSpace=wrap;html=1;" vertex="1" parent="1">
                    <mxGeometry x="970" y="520" width="170" height="80" as="geometry"/>
                </mxCell>
                <mxCell id="43" value="Facts Comp" style="text;html=1;align=center;verticalAlign=middle;resizable=0;points=[];autosize=1;strokeColor=none;fillColor=default;" vertex="1" parent="1">
                    <mxGeometry x="950" y="490" width="90" height="30" as="geometry"/>
                </mxCell>
                <mxCell id="44" value="/closer/year/facts" style="text;html=1;align=center;verticalAlign=middle;resizable=0;points=[];autosize=1;strokeColor=none;fillColor=default;" vertex="1" parent="1">
                    <mxGeometry x="1095" y="600" width="110" height="30" as="geometry"/>
                </mxCell>
                <mxCell id="46" value="Closing Notes" style="rounded=0;whiteSpace=wrap;html=1;" vertex="1" parent="1">
                    <mxGeometry x="1260" y="520" width="170" height="80" as="geometry"/>
                </mxCell>
                <mxCell id="47" value="&lt;span style=&quot;color: rgb(240, 240, 240); font-family: Helvetica; font-size: 12px; font-style: normal; font-variant-ligatures: normal; font-variant-caps: normal; font-weight: 400; letter-spacing: normal; orphans: 2; text-align: center; text-indent: 0px; text-transform: none; widows: 2; word-spacing: 0px; -webkit-text-stroke-width: 0px; background-color: rgb(24, 20, 29); text-decoration-thickness: initial; text-decoration-style: initial; text-decoration-color: initial; float: none; display: inline !important;&quot;&gt;/closer/year/closing&lt;br&gt;&lt;/span&gt;" style="text;whiteSpace=wrap;html=1;fillColor=default;" vertex="1" parent="1">
                    <mxGeometry x="1340" y="605" width="120" height="40" as="geometry"/>
                </mxCell>
                <mxCell id="50" value="Closing Comp" style="text;html=1;align=center;verticalAlign=middle;resizable=0;points=[];autosize=1;strokeColor=none;fillColor=default;" vertex="1" parent="1">
                    <mxGeometry x="1230" y="495" width="100" height="30" as="geometry"/>
                </mxCell>
                <mxCell id="51" value="Welcome Comp" style="text;html=1;align=center;verticalAlign=middle;resizable=0;points=[];autosize=1;strokeColor=none;fillColor=default;" vertex="1" parent="1">
                    <mxGeometry x="270" y="-10" width="110" height="30" as="geometry"/>
                </mxCell>
                <mxCell id="52" value="Mainpage Comp" style="text;html=1;align=center;verticalAlign=middle;resizable=0;points=[];autosize=1;strokeColor=none;fillColor=default;" vertex="1" parent="1">
                    <mxGeometry x="255" y="215" width="110" height="30" as="geometry"/>
                </mxCell>
            </root>
        </mxGraphModel>
    </diagram>
</mxfile>